HIERARCHY
ROOT hips
{
  OFFSET 0 10.6860622 2.3727825e-15
  CHANNELS 6 Xposition Yposition Zposition Yrotation Xrotation Zrotation
  JOINT leftUpperLeg
  {
    OFFSET 0.6642549969 -0.9402397400000004 0
    CHANNELS 3 Yrotation Xrotation Zrotation
    JOINT leftLowerLeg
    {
      OFFSET 0 -3.997221335632195 0
      CHANNELS 3 Yrotation Xrotation Zrotation
      JOINT leftFoot
      {
        OFFSET -0.13777839790000004 -4.6145792000000005 -0.22186036399999998
        CHANNELS 3 Yrotation Xrotation Zrotation
        JOINT leftToes
        {
          OFFSET -0.03777410834999995 -0.9130806927000008 0.85230013
          CHANNELS 3 Yrotation Xrotation Zrotation
          End Site
          {
            OFFSET -0.03777410834999995 -0.9130806927000008 0.85230013
          }
        }
      }
    }
  }
  JOINT rightUpperLeg
  {
    OFFSET -0.6642778626 -0.9402397400000004 0
    CHANNELS 3 Yrotation Xrotation Zrotation
    JOINT rightLowerLeg
    {
      OFFSET 0 -3.997221452859387 0
      CHANNELS 3 Yrotation Xrotation Zrotation
      JOINT rightFoot
      {
        OFFSET 0.1377926176 -4.6145792000000005 -0.22185782299999995
        CHANNELS 3 Yrotation Xrotation Zrotation
        JOINT rightToes
        {
          OFFSET 0.037780746850000047 -0.9130806927000008 0.85230167
          CHANNELS 3 Yrotation Xrotation Zrotation
          End Site
          {
            OFFSET 0.037780746850000047 -0.9130806927000008 0.85230167
          }
        }
      }
    }
  }
  JOINT spine
  {
    OFFSET 0 0.13988381660000015 0
    CHANNELS 3 Yrotation Xrotation Zrotation
    JOINT chest
    {
      OFFSET 0 0.6191039003973773 0
      CHANNELS 3 Yrotation Xrotation Zrotation
      JOINT upperChest
      {
        OFFSET 0 0.9855186130586943 0
        CHANNELS 3 Yrotation Xrotation Zrotation
        JOINT leftShoulder
        {
          OFFSET 0.1807663869 1.5087829790000005 0
          CHANNELS 3 Yrotation Xrotation Zrotation
          JOINT leftUpperArm
          {
            OFFSET 0.5985063006419806 0 0
            CHANNELS 3 Yrotation Xrotation Zrotation
            JOINT leftLowerArm
            {
              OFFSET 2.2993332369501065 0 0
              CHANNELS 3 Yrotation Xrotation Zrotation
              JOINT leftHand
              {
                OFFSET 2.395047042602395 0 0
                CHANNELS 3 Yrotation Xrotation Zrotation
                JOINT leftIndexProximal
                {
                  OFFSET 0.5766295810000004 0.04556643899499946 0.17265095988184
                  CHANNELS 3 Yrotation Xrotation Zrotation
                  JOINT leftIndexIntermediate
                  {
                    OFFSET 0.2957229000000008 -0.019352197700001517 -0.007932640616999987
                    CHANNELS 3 Yrotation Xrotation Zrotation
                    JOINT leftIndexDistal
                    {
                      OFFSET 0.19008243099999922 -0.012484908149998475 -0.002786250786000012
                      CHANNELS 3 Yrotation Xrotation Zrotation
                      End Site
                      {
                        OFFSET 0.19008243099999922 -0.012484908149998475 -0.002786250786000012
                      }
                    }
                  }
                }
                JOINT leftMiddleProximal
                {
                  OFFSET 0.5834975091000001 0.0524350405149987 0.02204081888183999
                  CHANNELS 3 Yrotation Xrotation Zrotation
                  JOINT leftMiddleIntermediate
                  {
                    OFFSET 0.33880573540000003 -0.019871473270000717 -0.00000971183179999946
                    CHANNELS 3 Yrotation Xrotation Zrotation
                    JOINT leftMiddleDistal
                    {
                      OFFSET 0.20676022730000088 -0.012221336379999448 0.0001471936708000235
                      CHANNELS 3 Yrotation Xrotation Zrotation
                      End Site
                      {
                        OFFSET 0.20676022730000088 -0.012221336379999448 0.0001471936708000235
                      }
                    }
                  }
                }
                JOINT leftLittleProximal
                {
                  OFFSET 0.5344154683999995 -0.012880921405001189 -0.24414037221816004
                  CHANNELS 3 Yrotation Xrotation Zrotation
                  JOINT leftLittleIntermediate
                  {
                    OFFSET 0.21758961730000093 -0.011650919939999227 0.011893592810000034
                    CHANNELS 3 Yrotation Xrotation Zrotation
                    JOINT leftLittleDistal
                    {
                      OFFSET 0.1475273964999999 -0.008152365682999818 0.006001092492999946
                      CHANNELS 3 Yrotation Xrotation Zrotation
                      End Site
                      {
                        OFFSET 0.1475273964999999 -0.008152365682999818 0.006001092492999946
                      }
                    }
                  }
                }
                JOINT leftRingProximal
                {
                  OFFSET 0.5799399463000003 0.026911854694997794 -0.12150566991816003
                  CHANNELS 3 Yrotation Xrotation Zrotation
                  JOINT leftRingIntermediate
                  {
                    OFFSET 0.26167887460000006 -0.013480186499999602 0.010996293000000053
                    CHANNELS 3 Yrotation Xrotation Zrotation
                    JOINT leftRingDistal
                    {
                      OFFSET 0.17667108799999987 -0.008990287899999228 0.0055541023999999065
                      CHANNELS 3 Yrotation Xrotation Zrotation
                      End Site
                      {
                        OFFSET 0.17667108799999987 -0.008990287899999228 0.0055541023999999065
                      }
                    }
                  }
                }
                JOINT leftThumbProximal
                {
                  OFFSET 0.11018806699999972 -0.09448718900500053 0.17047963138184
                  CHANNELS 3 Yrotation Xrotation Zrotation
                  JOINT leftThumbIntermediate
                  {
                    OFFSET 0.31062601459999983 -0.08126270900000132 0.15443142000000007
                    CHANNELS 3 Yrotation Xrotation Zrotation
                    JOINT leftThumbDistal
                    {
                      OFFSET 0.21627175790000086 -0.08833193599999878 0.018771167799999988
                      CHANNELS 3 Yrotation Xrotation Zrotation
                      End Site
                      {
                        OFFSET 0.21627175790000086 -0.08833193599999878 0.018771167799999988
                      }
                    }
                  }
                }
              }
            }
          }
        }
        JOINT neck
        {
          OFFSET 0 1.5463305265074576 0
          CHANNELS 3 Yrotation Xrotation Zrotation
          JOINT head
          {
            OFFSET 0 0.8456443600000344 0
            CHANNELS 3 Yrotation Xrotation Zrotation
            JOINT leftEye
            {
              OFFSET 0.30408573140000006 0.5104519199999995 0.1276382305
              CHANNELS 3 Yrotation Xrotation Zrotation
              End Site
              {
                OFFSET 0.30408573140000006 0.5104519199999995 0.1276382305
              }
            }
            JOINT rightEye
            {
              OFFSET -0.30409491089999996 0.5104519199999995 0.1276379445
              CHANNELS 3 Yrotation Xrotation Zrotation
              End Site
              {
                OFFSET -0.30409491089999996 0.5104519199999995 0.1276379445
              }
            }
            JOINT jaw
            {
              OFFSET -3.155239131000001e-7 -0.11984121820000082 0.60178107
              CHANNELS 3 Yrotation Xrotation Zrotation
              End Site
              {
                OFFSET -3.155239131000001e-7 -0.11984121820000082 0.60178107
              }
            }
          }
        }
        JOINT rightShoulder
        {
          OFFSET -0.1807303465 1.5087829790000005 0
          CHANNELS 3 Yrotation Xrotation Zrotation
          JOINT rightUpperArm
          {
            OFFSET -0.5985063796536958 0 0
            CHANNELS 3 Yrotation Xrotation Zrotation
            JOINT rightLowerArm
            {
              OFFSET -2.2993322059002854 0 0
              CHANNELS 3 Yrotation Xrotation Zrotation
              JOINT rightHand
              {
                OFFSET -2.395045314457259 0 0
                CHANNELS 3 Yrotation Xrotation Zrotation
                JOINT rightIndexProximal
                {
                  OFFSET -0.5764487688300002 0.0441371204405987 0.17361932004999997
                  CHANNELS 3 Yrotation Xrotation Zrotation
                  JOINT rightIndexIntermediate
                  {
                    OFFSET -0.29573011380000047 -0.01934826376999843 -0.007698921482999974
                    CHANNELS 3 Yrotation Xrotation Zrotation
                    JOINT rightIndexDistal
                    {
                      OFFSET -0.19008373999999884 -0.012503266380000655 -0.0026365778999999897
                      CHANNELS 3 Yrotation Xrotation Zrotation
                      End Site
                      {
                        OFFSET -0.19008373999999884 -0.012503266380000655 -0.0026365778999999897
                      }
                    }
                  }
                }
                JOINT rightMiddleProximal
                {
                  OFFSET -0.5834852037300005 0.05211639405060153 0.02307162440000001
                  CHANNELS 3 Yrotation Xrotation Zrotation
                  JOINT rightMiddleIntermediate
                  {
                    OFFSET -0.33880114510000003 -0.019952774050000954 0.0002455003561999819
                    CHANNELS 3 Yrotation Xrotation Zrotation
                    JOINT rightMiddleDistal
                    {
                      OFFSET -0.20675694929999955 -0.012273788999999091 0.00030209124000002766
                      CHANNELS 3 Yrotation Xrotation Zrotation
                      End Site
                      {
                        OFFSET -0.20675694929999955 -0.012273788999999091 0.00030209124000002766
                      }
                    }
                  }
                }
                JOINT rightLittleProximal
                {
                  OFFSET -0.5346811737299992 -0.011214256288399227 -0.24363941305000003
                  CHANNELS 3 Yrotation Xrotation Zrotation
                  JOINT rightLittleIntermediate
                  {
                    OFFSET -0.21757715980000092 -0.011771559690000988 0.01201554387
                    CHANNELS 3 Yrotation Xrotation Zrotation
                    JOINT rightLittleDistal
                    {
                      OFFSET -0.1475201849000004 -0.00822055339600003 0.006082065407000015
                      CHANNELS 3 Yrotation Xrotation Zrotation
                      End Site
                      {
                        OFFSET -0.1475201849000004 -0.00822055339600003 0.006082065407000015
                      }
                    }
                  }
                }
                JOINT rightRingProximal
                {
                  OFFSET -0.5800810755299999 0.027657985680600072 -0.12066365025000003
                  CHANNELS 3 Yrotation Xrotation Zrotation
                  JOINT rightRingIntermediate
                  {
                    OFFSET -0.26166445029999974 -0.013623118409999302 0.011164098990000045
                    CHANNELS 3 Yrotation Xrotation Zrotation
                    JOINT rightRingDistal
                    {
                      OFFSET -0.17666387530000027 -0.009072900100000503 0.005668185599999959
                      CHANNELS 3 Yrotation Xrotation Zrotation
                      End Site
                      {
                        OFFSET -0.17666387530000027 -0.009072900100000503 0.005668185599999959
                      }
                    }
                  }
                }
                JOINT rightThumbProximal
                {
                  OFFSET -0.10997596379000074 -0.09577489355940072 0.16989765924999997
                  CHANNELS 3 Yrotation Xrotation Zrotation
                  JOINT rightThumbIntermediate
                  {
                    OFFSET -0.31036620999999986 -0.08229339117999834 0.15440884469999996
                    CHANNELS 3 Yrotation Xrotation Zrotation
                    JOINT rightThumbDistal
                    {
                      OFFSET -0.21631306399999906 -0.08825326400000111 0.018656797720000014
                      CHANNELS 3 Yrotation Xrotation Zrotation
                      End Site
                      {
                        OFFSET -0.21631306399999906 -0.08825326400000111 0.018656797720000014
                      }
                    }
                  }
                }
              }
            }
          }
        }
      }
    }
  }
}
MOTION
Frames: 7
Frame Time: 0.03333333333333333
0 -7.848166298954054 5.012021688514791 -90.00187933338633 0 0 -19.4524634305018 -53.19742792023828 14.136920265961464 169.37047974744146 38.19576643754875 177.00466506806228 -10.42540410102743 50.02826739394311 -4.396967559048879 0 0 0 9.794066778274221 -55.14860958664463 -5.9764441454394 -169.5046740577093 37.5194724484639 -177.0462218493214 1.4776191312099847 50.41312749820907 -0.6670386511364489 0 0 0 -0.26262064671244845 19.970934642244067 -0.33695453935320224 -0.9969676766849229 38.84879549897004 3.310602378436812 0 0 0 28.71532683566307 -16.713879085140707 13.861600946044408 -36.18527842259413 -21.206635574094467 -23.176395672698256 -126.76232906285051 -16.536255851373227 16.22928089490308 -54.08145904015001 -63.54524595273843 63.57507046641344 0 0 0 0 0 0 0 0 0 0 0 0 0 0 0 0 0 0 0 0 0 0 0 0 0 0 0 0 0 0 0 0 0 0 0 0 0 0 0 0 0 0 0 0 0 -19.130485556794092 14.100358549514613 21.732765767027992 -20.865305801155767 -42.065308794698765 6.3224474241857065 0 0 0 0 0 0 0 0 0 -54.56803457837532 -33.781283603558975 18.97610585077356 25.81612717113903 -16.995453132980234 87.46466170869809 100.44779054451291 -57.34516180182263 26.60396076450113 -23.642710035350383 -36.24262470444901 -0.8132965537921137 0 0 0 0 0 0 0 0 0 0 0 0 0 0 0 0 0 0 0 0 0 0 0 0 0 0 0 0 0 0 0 0 0 0 0 0 0 0 0 0 0 0 0 0 0
0 -7.848166298954054 5.012021688514791 -90.00187700009965 0 0 -19.4524634305018 -53.19742792023828 14.136920265961464 169.37047974744146 38.19576643754875 177.00466506806228 -10.425403139056822 50.028262077873094 -4.396967559048879 0 0 0 9.794066778274221 -55.14860958664463 -5.976443402475563 -169.5046740577093 37.5194724484639 -177.0462218493214 1.4776191312099847 50.41312749820907 -0.6670386511364489 0 0 0 -0.26262064671244845 19.970934642244067 -0.33695453935320224 -0.994730129561114 38.847914109398616 3.245342530861365 0 0 0 28.391198731780296 -16.752560555688184 14.030813037160414 -36.18479887899892 -21.20624361686561 -23.176971002352783 -126.76546245498882 -16.53518890425012 16.228197379431222 -53.743245174380284 -63.39093459707686 63.44129115683061 0 0 0 0 0 0 0 0 0 0 0 0 0 0 0 0 0 0 0 0 0 0 0 0 0 0 0 0 0 0 0 0 0 0 0 0 0 0 0 0 0 0 0 0 0 -18.51200484365657 13.840277945789754 21.401816476481386 -20.488064688797817 -41.99452834802402 6.190243010539709 0 0 0 0 0 0 0 0 0 -54.740652333158415 -33.77560954015422 19.00955603863087 25.727214675967907 -16.9652694791049 87.40659691525951 100.34043381930474 -57.32705839778239 26.52176007770175 -23.80764043796475 -36.38206371515709 -0.42671327189854913 0 0 0 0 0 0 0 0 0 0 0 0 0 0 0 0 0 0 0 0 0 0 0 0 0 0 0 0 0 0 0 0 0 0 0 0 0 0 0 0 0 0 0 0 0
0 -7.848166298954054 5.012021688514791 -90.00187700009965 0 0 -19.4524634305018 -53.19742792023828 14.136920265961464 169.37047974744146 38.19576643754875 177.00466506806228 -10.425403139056822 50.028262077873094 -4.396967559048879 0 0 0 9.794066778274221 -55.14860958664463 -5.976443402475563 -169.5046740577093 37.5194724484639 -177.0462218493214 1.4776191312099847 50.41312749820907 -0.6670386511364489 0 0 0 -0.26262064671244845 19.970934642244067 -0.33695453935320224 -0.9924907198529521 38.84703273074708 3.180080284784035 0 0 0 28.06647258217364 -16.79037236286327 14.200503208262898 -36.18431933796486 -21.205849829108587 -23.17754777064489 -126.76860079846244 -16.534123744224676 16.227114871523888 -53.407317724270314 -63.236128810237936 63.31011665233367 0 0 0 0 0 0 0 0 0 0 0 0 0 0 0 0 0 0 0 0 0 0 0 0 0 0 0 0 0 0 0 0 0 0 0 0 0 0 0 0 0 0 0 0 0 -17.887688011202616 13.581633223043394 21.065667414823825 -20.11100833447396 -41.92301869903199 6.058658162357649 0 0 0 0 0 0 0 0 0 -54.91330447248038 -33.76984957923783 19.042990926922407 25.638270612788048 -16.935162073353542 87.34847513480605 100.23303889286163 -57.309027138290546 26.439505688976148 -23.97428483394158 -36.520805550703344 -0.038356207507265365 0 0 0 0 0 0 0 0 0 0 0 0 0 0 0 0 0 0 0 0 0 0 0 0 0 0 0 0 0 0 0 0 0 0 0 0 0 0 0 0 0 0 0 0 0
0 -7.848166298954054 5.012021688514791 -90.00187700009965 0 0 -19.4524634305018 -53.19742792023828 14.136920265961464 169.37047974744146 38.19576643754875 177.00466506806228 -10.425403139056822 50.028262077873094 -4.396967559048879 0 0 0 9.794066778274221 -55.14860958664463 -5.976443402475563 -169.5046740577093 37.5194724484639 -177.0462218493214 1.4776191312099847 50.41312749820907 -0.6670386511364489 0 0 0 -0.26262064671244845 19.970934642244067 -0.33695453935320224 -0.9902500714424947 38.84615136301484 3.1148186196591765 0 0 0 27.741567710702878 -16.82726405399783 14.37044778393662 -36.183839799492 -21.205457873965294 -23.1781214103869 -126.77173910718679 -16.533056808888322 16.226032375545124 -53.0739649382405 -63.08097870314146 63.18165220777847 0 0 0 0 0 0 0 0 0 0 0 0 0 0 0 0 0 0 0 0 0 0 0 0 0 0 0 0 0 0 0 0 0 0 0 0 0 0 0 0 0 0 0 0 0 -17.262493052747875 13.326564003278861 20.727004931638046 -19.734597189443296 -41.85086929706016 5.927856055182938 0 0 0 0 0 0 0 0 0 -55.08594189653219 -33.76400784604487 19.076401456917402 25.549305789854927 -16.905141578792254 87.29031348678619 100.12564887325873 -57.29108055527534 26.35722943907152 -24.142394175460666 -36.65863441928752 0.3511987161636793 0 0 0 0 0 0 0 0 0 0 0 0 0 0 0 0 0 0 0 0 0 0 0 0 0 0 0 0 0 0 0 0 0 0 0 0 0 0 0 0 0 0 0 0 0
0 -7.848166298954054 5.012021688514791 -90.00187700009965 0 0 -19.4524634305018 -53.19742792023828 14.136920265961464 169.37047974744146 38.19576643754875 177.00466506806228 -10.425403139056822 50.028262077873094 -4.396967559048879 0 0 0 9.794066778274221 -55.14860958664463 -5.976443402475563 -169.5046740577093 37.5194724484639 -177.0462218493214 1.4776191312099847 50.41312749820907 -0.6670386511364489 0 0 0 -0.26262064671244845 19.970934642244067 -0.33695453935320224 -0.9880081767598354 38.845274391034 3.0495576573835392 0 0 0 27.416485877422033 -16.86323153880065 14.54064007235698 -36.183357306961696 -21.205064088303523 -23.17869648884969 -126.77487951382973 -16.53199166062903 16.224949891495502 -52.743142638513895 -62.92548863058468 63.05585228060947 0 0 0 0 0 0 0 0 0 0 0 0 0 0 0 0 0 0 0 0 0 0 0 0 0 0 0 0 0 0 0 0 0 0 0 0 0 0 0 0 0 0 0 0 0 -16.636407247503648 13.075107298183873 20.385856825447735 -19.358833729602374 -41.77808219168942 5.797840159613074 0 0 0 0 0 0 0 0 0 -55.258565658063056 -33.75808024954945 19.10979143576864 25.460326107595748 -16.875206161248425 87.23211280506496 100.01826337914736 -57.27321852312606 26.274929198104413 -24.311970998521776 -36.79554195155924 0.74195441440561 0 0 0 0 0 0 0 0 0 0 0 0 0 0 0 0 0 0 0 0 0 0 0 0 0 0 0 0 0 0 0 0 0 0 0 0 0 0 0 0 0 0 0 0 0
0 -7.848166298954054 5.012021688514791 -90.00187700009965 0 0 -19.4524634305018 -53.19742792023828 14.136920265961464 169.37047974744146 38.19576643754875 177.00466506806228 -10.425403139056822 50.028262077873094 -4.396967559048879 0 0 0 9.794066778274221 -55.14860958664463 -5.976443402475563 -169.5046740577093 37.5194724484639 -177.0462218493214 1.4776191312099847 50.41312749820907 -0.6670386511364489 0 0 0 -0.26262064671244845 19.970934642244067 -0.33695453935320224 -0.9857648988512604 38.84440181464183 2.9842943319494264 0 0 0 27.09085865612314 -16.898311780973994 14.71126998290117 -36.18287777360116 -21.204672135245684 -23.17927180616283 -126.77801775314519 -16.530926518247192 16.223867419375598 -52.41455368993911 -62.769550893013275 62.93258584657213 0 0 0 0 0 0 0 0 0 0 0 0 0 0 0 0 0 0 0 0 0 0 0 0 0 0 0 0 0 0 0 0 0 0 0 0 0 0 0 0 0 0 0 0 0 -16.004943422391683 12.825540541499354 20.039792050622253 -18.983312877920316 -41.70457709879746 5.668472641479601 0 0 0 0 0 0 0 0 0 -55.431227997015576 -33.75207091489855 19.1431652597993 25.37131527986439 -16.84535577207168 87.17386362354239 99.91084145489272 -57.2554346033184 26.192580266863835 -24.48324780971677 -36.931703427963186 1.1344386402815627 0 0 0 0 0 0 0 0 0 0 0 0 0 0 0 0 0 0 0 0 0 0 0 0 0 0 0 0 0 0 0 0 0 0 0 0 0 0 0 0 0 0 0 0 0
0 -7.848166298954054 5.012021688514791 -90.00187700009965 0 0 -19.4524634305018 -53.19742792023828 14.136920265961464 169.37047974744146 38.19576643754875 177.00466506806228 -10.425403139056822 50.028262077873094 -4.396967559048879 0 0 0 9.794066778274221 -55.14860958664463 -5.976443402475563 -169.5046740577093 37.5194724484639 -177.0462218493214 1.4776191312099847 50.41312749820907 -0.6670386511364489 0 0 0 -0.26262064671244845 19.970934642244067 -0.33695453935320224 -0.9835203815362044 38.84352924895092 2.9190315675870186 0 0 0 26.765062601118824 -16.932461460778782 14.882137773920187 -36.182400405340324 -21.2042801832281 -23.179846878537937 -126.78115310449387 -16.529861381742347 16.222783963970212 -52.08841960081336 -62.61329762624798 62.811915400164246 0 0 0 0 0 0 0 0 0 0 0 0 0 0 0 0 0 0 0 0 0 0 0 0 0 0 0 0 0 0 0 0 0 0 0 0 0 0 0 0 0 0 0 0 0 -15.37256253930205 12.579709596821731 19.69126555937529 -18.60844620142383 -41.63044317034634 5.539901157247527 0 0 0 0 0 0 0 0 0 -55.603874787692526 -33.74597575210557 19.176516431465714 25.282284121209447 -16.81559036289479 87.11557517598808 99.80342338764349 -57.237728681079844 26.110208783973942 -24.65599471195987 -37.06691874352016 1.5281323044240254 0 0 0 0 0 0 0 0 0 0 0 0 0 0 0 0 0 0 0 0 0 0 0 0 0 0 0 0 0 0 0 0 0 0 0 0 0 0 0 0 0 0 0 0 0
